<?xml version="1.0" ?>
<svg xmlns="http://www.w3.org/2000/svg" version="1.1" width="512" height="512">
  <defs/>
  <g>
    <path d="M 154.99281311035156 280.5206604003906 C 160.3639373779297 378.0834655761719 183.21963500976562 347.68927001953125 193.90257263183594 377.3096008300781" stroke-width="5.0" fill="none" stroke="rgb(0, 0, 0)" stroke-opacity="1.0" stroke-linecap="round" stroke-linejoin="round"/>
    <path d="M 239.8815155029297 255.50860595703125 C 225.26747131347656 259.844970703125 229.0874786376953 270.861083984375 192.34542846679688 276.5166015625" stroke-width="5.0" fill="none" stroke="rgb(0, 0, 0)" stroke-opacity="1.0" stroke-linecap="round" stroke-linejoin="round"/>
    <path d="M 157.76373291015625 277.7674560546875 C 164.46095275878906 266.1642150878906 153.09100341796875 295.7120361328125 174.0155029296875 353.1708679199219" stroke-width="5.0" fill="none" stroke="rgb(0, 0, 0)" stroke-opacity="1.0" stroke-linecap="round" stroke-linejoin="round"/>
    <path d="M 272.5438537597656 325.3719482421875 C 266.44927978515625 357.7745361328125 272.6476135253906 328.75665283203125 271.6784973144531 332.0696105957031" stroke-width="5.0" fill="none" stroke="rgb(0, 0, 0)" stroke-opacity="1.0" stroke-linecap="round" stroke-linejoin="round"/>
    <path d="M 184.88919067382812 201.60830688476562 C 248.6635284423828 152.89718627929688 135.4872589111328 225.50682067871094 209.1650848388672 198.77572631835938" stroke-width="5.0" fill="none" stroke="rgb(0, 0, 0)" stroke-opacity="1.0" stroke-linecap="round" stroke-linejoin="round"/>
    <path d="M 132.08834838867188 243.2994842529297 C 169.368408203125 293.1657409667969 73.98817443847656 264.1658020019531 164.3068389892578 168.0122833251953" stroke-width="5.0" fill="none" stroke="rgb(0, 0, 0)" stroke-opacity="1.0" stroke-linecap="round" stroke-linejoin="round"/>
    <path d="M 139.79966735839844 264.9271240234375 C 174.33511352539062 286.04730224609375 254.17562866210938 272.63128662109375 249.9646453857422 219.26109313964844" stroke-width="5.0" fill="none" stroke="rgb(0, 0, 0)" stroke-opacity="1.0" stroke-linecap="round" stroke-linejoin="round"/>
    <path d="M 237.78076171875 257.8892822265625 C 289.0266418457031 210.94696044921875 192.8046112060547 193.6310577392578 236.09637451171875 118.27069854736328" stroke-width="5.0" fill="none" stroke="rgb(0, 0, 0)" stroke-opacity="1.0" stroke-linecap="round" stroke-linejoin="round"/>
    <path d="M 216.7797088623047 387.2425231933594 C 194.01300048828125 475.4106140136719 205.258056640625 455.6138610839844 183.43629455566406 358.26519775390625" stroke-width="5.0" fill="none" stroke="rgb(0, 0, 0)" stroke-opacity="1.0" stroke-linecap="round" stroke-linejoin="round"/>
    <path d="M 368.72265625 409.5940856933594 C 346.332763671875 449.8658752441406 302.56378173828125 405.6917724609375 261.6380310058594 426.38720703125" stroke-width="5.0" fill="none" stroke="rgb(0, 0, 0)" stroke-opacity="1.0" stroke-linecap="round" stroke-linejoin="round"/>
    <path d="M 235.1136474609375 444.9465026855469 C 255.76808166503906 369.1677551269531 234.2559814453125 450.9610900878906 360.36737060546875 439.2521667480469" stroke-width="5.0" fill="none" stroke="rgb(0, 0, 0)" stroke-opacity="1.0" stroke-linecap="round" stroke-linejoin="round"/>
    <path d="M 177.03736877441406 445.791259765625 C 234.6585693359375 460.95355224609375 239.25828552246094 321.87628173828125 175.916015625 442.2985534667969" stroke-width="5.0" fill="none" stroke="rgb(0, 0, 0)" stroke-opacity="1.0" stroke-linecap="round" stroke-linejoin="round"/>
    <path d="M 274.1434020996094 251.03414916992188 C 273.81573486328125 249.51683044433594 266.0560607910156 238.91583251953125 296.50433349609375 283.2244873046875" stroke-width="5.0" fill="none" stroke="rgb(0, 0, 0)" stroke-opacity="1.0" stroke-linecap="round" stroke-linejoin="round"/>
    <path d="M 343.8405456542969 263.4082336425781 C 371.0338134765625 283.2403259277344 371.4608459472656 302.2785949707031 386.0444030761719 319.0741271972656" stroke-width="5.0" fill="none" stroke="rgb(0, 0, 0)" stroke-opacity="1.0" stroke-linecap="round" stroke-linejoin="round"/>
    <path d="M 254.88148498535156 231.9427490234375 C 320.2165222167969 220.76441955566406 339.7935485839844 260.38336181640625 362.03192138671875 283.3667297363281" stroke-width="5.0" fill="none" stroke="rgb(0, 0, 0)" stroke-opacity="1.0" stroke-linecap="round" stroke-linejoin="round"/>
    <path d="M 294.1324462890625 288.6293640136719 C 294.4634704589844 356.3826599121094 293.80010986328125 339.3943176269531 245.6062774658203 408.8642883300781" stroke-width="5.0" fill="none" stroke="rgb(0, 0, 0)" stroke-opacity="1.0" stroke-linecap="round" stroke-linejoin="round"/>
    <path d="M 241.78367614746094 205.36517333984375 C 275.45355224609375 90.740966796875 229.04019165039062 60.67964172363281 238.9080810546875 179.8180694580078" stroke-width="5.0" fill="none" stroke="rgb(0, 0, 0)" stroke-opacity="1.0" stroke-linecap="round" stroke-linejoin="round"/>
    <path d="M 311.54913330078125 90.96695709228516 C 246.86428833007812 235.7744598388672 194.3271942138672 70.52518463134766 309.51593017578125 65.26251983642578" stroke-width="5.0" fill="none" stroke="rgb(0, 0, 0)" stroke-opacity="1.0" stroke-linecap="round" stroke-linejoin="round"/>
    <path d="M 216.0496368408203 151.8467254638672 C 214.09742736816406 72.07235717773438 92.11968994140625 14.424886703491211 190.29466247558594 156.09725952148438" stroke-width="5.0" fill="none" stroke="rgb(0, 0, 0)" stroke-opacity="1.0" stroke-linecap="round" stroke-linejoin="round"/>
    <path d="M 188.4927978515625 158.85577392578125 C 149.87525939941406 50.94520568847656 107.34178924560547 47.29697799682617 190.66627502441406 88.1766357421875" stroke-width="5.0" fill="none" stroke="rgb(0, 0, 0)" stroke-opacity="1.0" stroke-linecap="round" stroke-linejoin="round"/>
    <path d="M 320.84912109375 437.552734375 C 307.39727783203125 440.648681640625 323.4049072265625 431.4172668457031 258.5794372558594 429.00592041015625" stroke-width="5.0" fill="none" stroke="rgb(0, 0, 0)" stroke-opacity="1.0" stroke-linecap="round" stroke-linejoin="round"/>
    <path d="M 256.90362548828125 395.9958801269531 C 324.81781005859375 401.98016357421875 314.16229248046875 351.47406005859375 317.2063293457031 368.7073669433594" stroke-width="5.0" fill="none" stroke="rgb(0, 0, 0)" stroke-opacity="1.0" stroke-linecap="round" stroke-linejoin="round"/>
    <path d="M 380.0454406738281 412.6710205078125 C 350.3828125 425.4701843261719 444.838623046875 439.1740417480469 312.9371643066406 441.8202209472656" stroke-width="5.0" fill="none" stroke="rgb(0, 0, 0)" stroke-opacity="1.0" stroke-linecap="round" stroke-linejoin="round"/>
    <path d="M 374.6402282714844 424.8089904785156 C 410.4369812011719 393.91119384765625 382.03240966796875 286.3466491699219 387.1412658691406 330.6737976074219" stroke-width="5.0" fill="none" stroke="rgb(0, 0, 0)" stroke-opacity="1.0" stroke-linecap="round" stroke-linejoin="round"/>
  </g>
</svg>
